<?xml version="1.0" encoding="UTF-8" standalone="no" ?>
<!DOCTYPE svg PUBLIC "-//W3C//DTD SVG 1.1//EN" "http://www.w3.org/Graphics/SVG/1.1/DTD/svg11.dtd">
<svg xmlns="http://www.w3.org/2000/svg" xmlns:xlink="http://www.w3.org/1999/xlink" version="1.1" width="1280" height="1024" viewBox="0 0 1280 1024" xml:space="preserve">
<desc>Created with Fabric.js 5.3.0</desc>
<defs>
</defs>
<g transform="matrix(1 0 0 1 640 512)" id="background-logo"  >
<rect style="stroke: none; stroke-width: 0; stroke-dasharray: none; stroke-linecap: butt; stroke-dashoffset: 0; stroke-linejoin: miter; stroke-miterlimit: 4; fill: rgb(255,255,255); fill-rule: nonzero; opacity: 1;"  paint-order="stroke"  x="-640" y="-512" rx="0" ry="0" width="1280" height="1024" />
</g>
<g transform="matrix(3.524844896421329 0 0 3.524844896421329 640 511.9999999999999)" id="logo-logo"  >
<g style=""  paint-order="stroke"   >
		<g transform="matrix(3.9769476460679805 0 0 3.9769476460679813 5.684342e-14 0)"  >
<path style="stroke: none; stroke-width: 1; stroke-dasharray: none; stroke-linecap: butt; stroke-dashoffset: 0; stroke-linejoin: miter; stroke-miterlimit: 4; fill: rgb(0,0,0); fill-rule: nonzero; opacity: 1;"  paint-order="stroke"  transform=" translate(-72, -71.94999999999999)" d="M 53.5 99.3 L 53.5 99.3 C 51.7 98.1 50.1 96.8 48.7 95.3 C 42.7 89.3 39 81.1 39 72 C 39 62.900000000000006 42.7 54.7 48.7 48.7 C 54.7 42.7 62.900000000000006 39 72 39 C 81.1 39 89.3 42.7 95.3 48.7 C 101.3 54.7 105 62.900000000000006 105 72 C 105 81.1 101.3 89.3 95.3 95.3 C 93.8 96.8 92.3 98.1 90.5 99.2 L 90.4 99.2 C 86.7 101.7 82.5 103.5 77.9 104.3 C 77.7 104.39999999999999 77.60000000000001 104.39999999999999 77.4 104.39999999999999 C 75.60000000000001 104.69999999999999 73.80000000000001 104.89999999999999 71.9 104.89999999999999 C 70 104.89999999999999 68.2 104.69999999999999 66.4 104.39999999999999 C 66.2 104.39999999999999 66 104.39999999999999 65.9 104.3 C 61.5 103.6 57.2 101.8 53.5 99.3 L 53.5 99.3 z M 85.1 96.9 C 84 96.9 83.19999999999999 96 83.19999999999999 95 C 83.19999999999999 94 84.1 93.1 85.1 93.1 L 87.5 93.1 L 87.5 90.1 L 85.1 90.1 C 84 90.1 83.19999999999999 89.19999999999999 83.19999999999999 88.19999999999999 C 83.19999999999999 87.1 84.1 86.29999999999998 85.1 86.29999999999998 L 87.5 86.29999999999998 L 87.5 83.29999999999998 L 85.1 83.29999999999998 C 84 83.29999999999998 83.19999999999999 82.39999999999998 83.19999999999999 81.39999999999998 C 83.19999999999999 80.39999999999998 84.1 79.49999999999997 85.1 79.49999999999997 L 87.5 79.49999999999997 L 87.5 78.69999999999997 L 79.9 74.29999999999997 C 79.80000000000001 74.29999999999997 79.80000000000001 74.19999999999997 79.7 74.19999999999997 L 72 69.7 L 64.4 74.10000000000001 C 64.30000000000001 74.2 64.2 74.2 64.2 74.2 L 56.6 78.60000000000001 L 56.6 79.4 L 59 79.4 C 60.1 79.4 60.9 80.30000000000001 60.9 81.30000000000001 C 60.9 82.30000000000001 60 83.20000000000002 59 83.20000000000002 L 56.6 83.20000000000002 L 56.6 86.20000000000002 L 59 86.20000000000002 C 60.1 86.20000000000002 60.9 87.10000000000002 60.9 88.10000000000002 C 60.9 89.20000000000002 60 90.00000000000003 59 90.00000000000003 L 56.6 90.00000000000003 L 56.6 93.00000000000003 L 59 93.00000000000003 C 60.1 93.00000000000003 60.9 93.90000000000003 60.9 94.90000000000003 C 60.9 95.90000000000003 60 96.80000000000004 59 96.80000000000004 L 57.1 96.80000000000004 C 59.5 98.20000000000005 62.1 99.40000000000003 64.8 100.10000000000004 L 64.8 95.00000000000004 C 64.8 91.50000000000004 66.7 89.30000000000004 69.2 88.30000000000004 C 70 88 71 87.9 72 87.9 C 73 87.9 74 88.10000000000001 74.9 88.5 C 77.4 89.5 79.30000000000001 91.7 79.30000000000001 95.2 L 79.30000000000001 100.3 C 82.10000000000001 99.6 84.70000000000002 98.5 87.00000000000001 97 L 85.1 96.9 L 85.1 96.9 z M 72 73.4 C 73.6 73.4 75.1 74.10000000000001 76.1 75.10000000000001 C 77.19999999999999 76.2 77.8 77.60000000000001 77.8 79.2 C 77.8 80.8 77.1 82.3 76.1 83.3 L 76.1 83.3 L 76.1 83.3 C 75 84.39999999999999 73.6 85 72 85 C 70.4 85 68.9 84.3 67.9 83.3 L 67.9 83.3 L 67.9 83.3 C 66.80000000000001 82.2 66.2 80.8 66.2 79.2 C 66.2 77.60000000000001 66.9 76.10000000000001 67.9 75.10000000000001 L 67.9 75.10000000000001 C 68.9 74.1 70.4 73.4 72 73.4 z M 73.4 77.9 C 73 77.5 72.5 77.30000000000001 72 77.30000000000001 C 71.4 77.30000000000001 70.9 77.50000000000001 70.6 77.9 L 70.6 77.9 L 70.6 77.9 C 70.19999999999999 78.30000000000001 70 78.80000000000001 70 79.30000000000001 C 70 79.9 70.2 80.4 70.6 80.70000000000002 L 70.6 80.70000000000002 C 71 81.10000000000002 71.5 81.30000000000001 72 81.30000000000001 C 72.6 81.30000000000001 73.1 81.10000000000001 73.4 80.70000000000002 L 73.4 80.70000000000002 C 73.80000000000001 80.30000000000001 74 79.80000000000001 74 79.30000000000001 C 74 78.7 73.8 78.2 73.4 77.9 z M 78.8 69.2 L 78.8 62.900000000000006 C 78.8 61.800000000000004 79.7 61.00000000000001 80.7 61.00000000000001 C 80.9 61.00000000000001 81.10000000000001 61.00000000000001 81.3 61.10000000000001 L 87 62.60000000000001 C 86.3 61.50000000000001 85.4 60.400000000000006 84.5 59.400000000000006 C 81.3 56.2 76.9 54.2 72 54.2 C 67.1 54.2 62.7 56.2 59.5 59.400000000000006 C 58.5 60.400000000000006 57.7 61.400000000000006 57 62.60000000000001 L 62.7 61.10000000000001 C 62.900000000000006 61.00000000000001 63.1 61.00000000000001 63.300000000000004 61.00000000000001 C 64.4 61.00000000000001 65.2 61.900000000000006 65.2 62.900000000000006 L 65.2 69.2 L 70.10000000000001 66.4 L 70.10000000000001 63.300000000000004 L 69.10000000000001 63.300000000000004 C 68.00000000000001 63.300000000000004 67.2 62.400000000000006 67.2 61.400000000000006 C 67.2 60.300000000000004 68.10000000000001 59.50000000000001 69.10000000000001 59.50000000000001 L 70.10000000000001 59.50000000000001 L 70.10000000000001 58.400000000000006 C 70.10000000000001 57.300000000000004 71.00000000000001 56.50000000000001 72.00000000000001 56.50000000000001 C 73.10000000000001 56.50000000000001 73.90000000000002 57.400000000000006 73.90000000000002 58.400000000000006 L 73.90000000000002 59.50000000000001 L 74.90000000000002 59.50000000000001 C 76.00000000000001 59.50000000000001 76.80000000000003 60.400000000000006 76.80000000000003 61.400000000000006 C 76.80000000000003 62.50000000000001 75.90000000000002 63.300000000000004 74.90000000000002 63.300000000000004 L 73.90000000000002 63.300000000000004 L 73.90000000000002 66.4 C 73.9 66.4 78.8 69.2 78.8 69.2 z M 89 67.1 L 82.6 65.39999999999999 L 82.6 71.39999999999999 L 89.39999999999999 75.3 C 89.39999999999999 75.2 89.39999999999999 75 89.49999999999999 74.89999999999999 C 89.69999999999999 73.99999999999999 89.69999999999999 72.99999999999999 89.69999999999999 71.99999999999999 C 89.7 70.3 89.5 68.7 89 67.1 z M 61.4 71.4 L 61.4 65.4 L 55 67.1 C 54.6 68.6 54.3 70.3 54.3 72 C 54.3 73 54.4 74 54.5 74.9 C 54.5 75 54.5 75.2 54.6 75.30000000000001 L 61.4 71.4 z M 42.9 70.1 L 50.5 70.1 C 50.7 67.6 51.4 65.19999999999999 52.4 62.89999999999999 L 45.8 59.099999999999994 C 44.2 62.5 43.2 66.2 42.9 70.1 z M 50.5 73.9 L 42.9 73.9 C 43.1 76.4 43.6 78.9 44.3 81.2 L 51 77.3 C 50.9 76.7 50.7 76.1 50.6 75.5 C 50.7 75 50.6 74.5 50.5 73.9 z M 47.8 55.8 L 54.4 59.599999999999994 C 55.1 58.599999999999994 55.9 57.599999999999994 56.8 56.8 C 57.699999999999996 55.9 58.599999999999994 55.099999999999994 59.599999999999994 54.4 L 55.8 47.8 C 54.199999999999996 48.9 52.699999999999996 50.099999999999994 51.4 51.4 C 50.1 52.7 48.9 54.2 47.8 55.8 z M 59.1 45.9 L 62.9 52.5 C 65.1 51.5 67.5 50.8 70.1 50.6 L 70.1 43 C 66.2 43.2 62.5 44.2 59.1 45.9 z M 101.1 73.9 L 93.5 73.9 C 93.5 74.4 93.4 75 93.3 75.5 C 93.2 76.1 93.1 76.7 92.89999999999999 77.3 L 99.6 81.2 C 100.4 78.9 100.9 76.5 101.1 73.9 z M 93.5 70.1 L 101.1 70.1 C 100.8 66.19999999999999 99.8 62.49999999999999 98.19999999999999 59.099999999999994 L 91.6 62.89999999999999 C 92.6 65.1 93.2 67.5 93.5 70.1 z M 89.6 59.6 L 96.19999999999999 55.800000000000004 C 95.1 54.2 93.89999999999999 52.7 92.6 51.400000000000006 C 91.3 50.10000000000001 89.8 48.800000000000004 88.19999999999999 47.800000000000004 L 84.39999999999999 54.400000000000006 C 85.39999999999999 55.10000000000001 86.39999999999999 55.900000000000006 87.19999999999999 56.800000000000004 C 88.1 57.6 88.9 58.6 89.6 59.6 z M 81.1 52.5 L 84.89999999999999 45.9 C 81.6 44.3 77.89999999999999 43.199999999999996 73.89999999999999 43 L 73.89999999999999 50.6 C 76.5 50.8 78.9 51.4 81.1 52.5 z M 75.5 100.9 L 75.5 95.10000000000001 C 75.5 93.4 74.6 92.4 73.5 91.9 C 73 91.7 72.5 91.60000000000001 72 91.60000000000001 C 71.5 91.60000000000001 71 91.7 70.5 91.9 C 69.4 92.30000000000001 68.5 93.4 68.5 95.10000000000001 L 68.5 100.9 C 69.6 101 70.8 101.10000000000001 72 101.10000000000001 C 73.2 101.1 74.3 101 75.5 100.9 z M 98.2 84.8 L 91.4 80.89999999999999 L 91.4 81.39999999999999 L 91.4 88.19999999999999 L 91.4 93.69999999999999 C 91.80000000000001 93.29999999999998 92.2 92.89999999999999 92.60000000000001 92.49999999999999 C 94.8 90.3 96.7 87.7 98.2 84.8 z M 52.6 80.9 L 45.800000000000004 84.80000000000001 C 47.2 87.70000000000002 49.1 90.30000000000001 51.400000000000006 92.60000000000001 C 51.800000000000004 93.00000000000001 52.2 93.4 52.60000000000001 93.80000000000001 L 52.60000000000001 88.30000000000001 L 52.60000000000001 81.50000000000001 C 52.6 81.4 52.6 80.9 52.6 80.9 z" stroke-linecap="round" />
</g>
</g>
</g>
</svg>